<?xml version="1.0" encoding="UTF-8" standalone="no"?>
<!DOCTYPE svg PUBLIC "-//W3C//DTD SVG 1.1//EN" "http://www.w3.org/Graphics/SVG/1.1/DTD/svg11.dtd">
<svg width="100%" height="100%" viewBox="0 0 98 98" version="1.1" xmlns="http://www.w3.org/2000/svg" xmlns:xlink="http://www.w3.org/1999/xlink" xml:space="preserve" xmlns:serif="http://www.serif.com/" style="fill-rule:evenodd;clip-rule:evenodd;stroke-linecap:round;stroke-linejoin:round;stroke-miterlimit:1.5;">
    <g id="Layer1" transform="matrix(0.993422,0,0,0.993422,-0.132884,-0.318687)">
        <g transform="matrix(0.997511,0,0,1.00057,0.00114027,-0.000370545)">
            <rect x="0.458" y="0.645" width="98.244" height="97.944" style="fill:none;stroke:black;stroke-width:2.1px;"/>
        </g>
        <path d="M54.066,45.729L44.837,45.625L44.526,79.515C44.421,82.289 37.078,86.052 33.908,78.197L26.594,82.65C29.998,89.443 35.499,90.845 40.232,90.972C49.311,91.216 53.819,85.105 53.733,80.46L54.066,45.729Z" style="stroke:black;stroke-width:0.63px;"/>
        <path d="M81.361,57.067L88.342,52.357C88.016,51.263 86.823,49.745 86.117,49.2C79.194,43.855 70.706,43.793 64.976,49.136C60.597,53.22 60.899,61.867 64.976,66.161C66.481,67.745 73.422,71.819 78.071,73.42C83.113,75.156 83.301,81.05 78.071,82.436C73.52,83.642 69.342,81.463 66.559,77.268L58.996,81.598C60.562,84.084 62.756,86.733 65.038,88.382C70.776,92.527 80.52,91.972 85.515,88.382C88.873,85.968 90.56,83.076 90.957,79.817C91.15,78.326 91.095,76.917 90.957,75.536C90.455,72.941 89.001,70.583 86.896,68.387C84.309,65.686 81.135,64.6 78.084,63.35C75.094,62.125 72.547,60.845 71.607,59.363C68.736,54.834 74.222,51.878 78.036,53.737C79.771,54.582 80.453,56.021 81.361,57.067Z" style="stroke:black;stroke-width:0.63px;"/>
    </g>
</svg>
